<svg xmlns="http://www.w3.org/2000/svg" xmlns:xlink="http://www.w3.org/1999/xlink" width="2000" zoomAndPan="magnify" viewBox="0 0 1500 1499.999933" height="2000" preserveAspectRatio="xMidYMid meet" version="1.0"><defs><g/><clipPath id="691e73e2e0"><path d="M 225.054688 181.839844 L 1254.804688 181.839844 L 1254.804688 1211.589844 L 225.054688 1211.589844 Z M 225.054688 181.839844 " clip-rule="nonzero"/></clipPath></defs><g clip-path="url(#691e73e2e0)"><path fill="#f4b9b9" d="M 1255.121094 696.871094 C 1255.121094 705.300781 1254.914062 713.722656 1254.5 722.144531 C 1254.085938 730.5625 1253.464844 738.964844 1252.640625 747.351562 C 1251.8125 755.742188 1250.78125 764.105469 1249.546875 772.441406 C 1248.308594 780.78125 1246.867188 789.082031 1245.222656 797.347656 C 1243.578125 805.617188 1241.734375 813.835938 1239.683594 822.015625 C 1237.636719 830.191406 1235.390625 838.3125 1232.941406 846.378906 C 1230.496094 854.445312 1227.851562 862.445312 1225.011719 870.378906 C 1222.171875 878.316406 1219.140625 886.179688 1215.914062 893.964844 C 1212.691406 901.753906 1209.273438 909.457031 1205.671875 917.078125 C 1202.066406 924.695312 1198.277344 932.222656 1194.304688 939.65625 C 1190.332031 947.089844 1186.179688 954.421875 1181.84375 961.652344 C 1177.511719 968.878906 1173.003906 976 1168.320312 983.007812 C 1163.636719 990.015625 1158.785156 996.90625 1153.765625 1003.675781 C 1148.742188 1010.445312 1143.558594 1017.089844 1138.210938 1023.605469 C 1132.867188 1030.121094 1127.363281 1036.5 1121.699219 1042.746094 C 1116.039062 1048.992188 1110.230469 1055.09375 1104.269531 1061.054688 C 1098.308594 1067.015625 1092.207031 1072.824219 1085.960938 1078.484375 C 1079.714844 1084.144531 1073.335938 1089.648438 1066.820312 1094.996094 C 1060.304688 1100.34375 1053.660156 1105.527344 1046.890625 1110.550781 C 1040.121094 1115.570312 1033.230469 1120.421875 1026.222656 1125.105469 C 1019.214844 1129.789062 1012.097656 1134.296875 1004.867188 1138.628906 C 997.636719 1142.964844 990.304688 1147.117188 982.871094 1151.089844 C 975.4375 1155.0625 967.910156 1158.851562 960.292969 1162.457031 C 952.671875 1166.058594 944.96875 1169.472656 937.179688 1172.699219 C 929.394531 1175.925781 921.53125 1178.957031 913.597656 1181.796875 C 905.660156 1184.636719 897.660156 1187.28125 889.59375 1189.726562 C 881.527344 1192.175781 873.40625 1194.421875 865.230469 1196.46875 C 857.054688 1198.515625 848.832031 1200.363281 840.566406 1202.007812 C 832.296875 1203.652344 823.996094 1205.09375 815.65625 1206.328125 C 807.320312 1207.566406 798.957031 1208.597656 790.570312 1209.425781 C 782.179688 1210.25 773.777344 1210.871094 765.359375 1211.285156 C 756.9375 1211.699219 748.515625 1211.90625 740.085938 1211.90625 C 731.65625 1211.90625 723.234375 1211.699219 714.816406 1211.285156 C 706.394531 1210.871094 697.992188 1210.25 689.605469 1209.425781 C 681.214844 1208.597656 672.851562 1207.566406 664.515625 1206.328125 C 656.179688 1205.09375 647.875 1203.652344 639.609375 1202.007812 C 631.339844 1200.363281 623.121094 1198.515625 614.945312 1196.46875 C 606.765625 1194.421875 598.644531 1192.175781 590.582031 1189.726562 C 582.515625 1187.28125 574.511719 1184.636719 566.578125 1181.796875 C 558.640625 1178.957031 550.777344 1175.925781 542.992188 1172.699219 C 535.203125 1169.472656 527.5 1166.058594 519.882812 1162.457031 C 512.261719 1158.851562 504.734375 1155.0625 497.300781 1151.089844 C 489.867188 1147.117188 482.535156 1142.964844 475.308594 1138.628906 C 468.078125 1134.296875 460.957031 1129.789062 453.949219 1125.105469 C 446.941406 1120.421875 440.050781 1115.570312 433.28125 1110.550781 C 426.511719 1105.527344 419.867188 1100.34375 413.351562 1094.996094 C 406.835938 1089.648438 400.457031 1084.144531 394.210938 1078.484375 C 387.964844 1072.824219 381.863281 1067.015625 375.902344 1061.054688 C 369.941406 1055.09375 364.132812 1048.992188 358.472656 1042.746094 C 352.8125 1036.5 347.308594 1030.121094 341.960938 1023.605469 C 336.613281 1017.089844 331.429688 1010.445312 326.40625 1003.675781 C 321.386719 996.90625 316.535156 990.015625 311.851562 983.007812 C 307.167969 976 302.660156 968.878906 298.328125 961.652344 C 293.996094 954.421875 289.839844 947.089844 285.867188 939.65625 C 281.894531 932.222656 278.105469 924.695312 274.503906 917.078125 C 270.898438 909.457031 267.484375 901.753906 264.257812 893.964844 C 261.03125 886.179688 258 878.316406 255.160156 870.378906 C 252.320312 862.445312 249.675781 854.445312 247.230469 846.378906 C 244.785156 838.3125 242.535156 830.191406 240.488281 822.015625 C 238.441406 813.835938 236.59375 805.617188 234.949219 797.347656 C 233.304688 789.082031 231.863281 780.78125 230.628906 772.441406 C 229.390625 764.105469 228.359375 755.742188 227.535156 747.351562 C 226.707031 738.964844 226.085938 730.5625 225.675781 722.144531 C 225.261719 713.722656 225.054688 705.300781 225.054688 696.871094 C 225.054688 688.441406 225.261719 680.019531 225.675781 671.601562 C 226.085938 663.179688 226.707031 654.777344 227.535156 646.390625 C 228.359375 638 229.390625 629.636719 230.628906 621.300781 C 231.863281 612.960938 233.304688 604.660156 234.949219 596.394531 C 236.59375 588.125 238.441406 579.90625 240.488281 571.726562 C 242.535156 563.550781 244.785156 555.429688 247.230469 547.363281 C 249.675781 539.300781 252.320312 531.296875 255.160156 523.363281 C 258 515.425781 261.03125 507.5625 264.257812 499.777344 C 267.484375 491.988281 270.898438 484.285156 274.503906 476.667969 C 278.105469 469.046875 281.894531 461.519531 285.867188 454.085938 C 289.839844 446.652344 293.996094 439.320312 298.328125 432.089844 C 302.660156 424.863281 307.167969 417.742188 311.851562 410.734375 C 316.535156 403.726562 321.386719 396.835938 326.40625 390.066406 C 331.429688 383.296875 336.613281 376.652344 341.960938 370.136719 C 347.308594 363.621094 352.8125 357.242188 358.472656 350.996094 C 364.132812 344.75 369.941406 338.648438 375.902344 332.6875 C 381.863281 326.726562 387.964844 320.917969 394.210938 315.257812 C 400.457031 309.597656 406.835938 304.09375 413.351562 298.746094 C 419.867188 293.398438 426.511719 288.214844 433.28125 283.191406 C 440.050781 278.171875 446.941406 273.320312 453.949219 268.636719 C 460.957031 263.953125 468.078125 259.445312 475.308594 255.113281 C 482.535156 250.777344 489.867188 246.625 497.300781 242.652344 C 504.734375 238.679688 512.261719 234.890625 519.882812 231.285156 C 527.5 227.683594 535.203125 224.269531 542.992188 221.042969 C 550.777344 217.816406 558.640625 214.785156 566.578125 211.945312 C 574.511719 209.105469 582.515625 206.460938 590.582031 204.015625 C 598.644531 201.570312 606.765625 199.320312 614.945312 197.273438 C 623.121094 195.226562 631.339844 193.378906 639.609375 191.734375 C 647.875 190.089844 656.179688 188.648438 664.515625 187.414062 C 672.851562 186.175781 681.214844 185.144531 689.605469 184.316406 C 697.992188 183.492188 706.394531 182.871094 714.816406 182.457031 C 723.234375 182.042969 731.65625 181.839844 740.085938 181.839844 C 748.515625 181.839844 756.9375 182.042969 765.359375 182.457031 C 773.777344 182.871094 782.179688 183.492188 790.570312 184.316406 C 798.957031 185.144531 807.320312 186.175781 815.65625 187.414062 C 823.996094 188.648438 832.296875 190.089844 840.566406 191.734375 C 848.832031 193.378906 857.054688 195.226562 865.230469 197.273438 C 873.40625 199.320312 881.527344 201.570312 889.59375 204.015625 C 897.660156 206.460938 905.660156 209.105469 913.597656 211.945312 C 921.53125 214.785156 929.394531 217.816406 937.179688 221.042969 C 944.96875 224.269531 952.671875 227.683594 960.292969 231.285156 C 967.910156 234.890625 975.4375 238.679688 982.871094 242.652344 C 990.304688 246.625 997.636719 250.777344 1004.867188 255.113281 C 1012.097656 259.445312 1019.214844 263.953125 1026.222656 268.636719 C 1033.230469 273.320312 1040.121094 278.171875 1046.890625 283.191406 C 1053.660156 288.214844 1060.304688 293.398438 1066.820312 298.746094 C 1073.335938 304.09375 1079.714844 309.597656 1085.960938 315.257812 C 1092.207031 320.917969 1098.308594 326.726562 1104.269531 332.6875 C 1110.230469 338.648438 1116.039062 344.75 1121.699219 350.996094 C 1127.363281 357.242188 1132.867188 363.621094 1138.210938 370.136719 C 1143.558594 376.652344 1148.742188 383.296875 1153.765625 390.066406 C 1158.785156 396.835938 1163.636719 403.726562 1168.320312 410.734375 C 1173.003906 417.742188 1177.511719 424.863281 1181.84375 432.089844 C 1186.179688 439.320312 1190.332031 446.652344 1194.304688 454.085938 C 1198.277344 461.519531 1202.066406 469.046875 1205.671875 476.667969 C 1209.273438 484.285156 1212.691406 491.988281 1215.914062 499.777344 C 1219.140625 507.5625 1222.171875 515.425781 1225.011719 523.363281 C 1227.851562 531.296875 1230.496094 539.300781 1232.941406 547.363281 C 1235.390625 555.429688 1237.636719 563.550781 1239.683594 571.726562 C 1241.734375 579.90625 1243.578125 588.125 1245.222656 596.394531 C 1246.867188 604.660156 1248.308594 612.960938 1249.546875 621.300781 C 1250.78125 629.636719 1251.8125 638 1252.640625 646.390625 C 1253.464844 654.777344 1254.085938 663.179688 1254.5 671.601562 C 1254.914062 680.019531 1255.121094 688.441406 1255.121094 696.871094 Z M 1255.121094 696.871094 " fill-opacity="1" fill-rule="nonzero"/></g><path fill="#870000" d="M 740.085938 698.414062 L 579.667969 698.414062 L 579.667969 1033.972656 L 537.457031 1033.972656 L 537.457031 699.15625 L 483.847656 699.15625 L 483.847656 669.796875 L 524.21875 669.796875 L 524.21875 656.203125 L 538.910156 656.203125 L 538.910156 615.089844 L 453.003906 615.089844 L 453.003906 565.160156 C 418.511719 560.765625 389.863281 546.8125 389.863281 546.8125 L 389.863281 474.117188 C 421.300781 493.5 472.863281 508.074219 534.460938 517.78125 C 561.472656 504.808594 595.34375 477.441406 614.933594 419.644531 C 614.933594 419.644531 694.222656 439.265625 740.085938 359.800781 C 785.980469 439.265625 865.269531 419.644531 865.269531 419.644531 C 884.859375 477.441406 918.730469 504.808594 945.742188 517.78125 C 1007.339844 508.074219 1058.871094 493.5 1090.308594 474.117188 L 1090.308594 546.8125 C 1090.308594 546.8125 1061.691406 560.765625 1027.167969 565.160156 L 1027.167969 615.089844 L 941.261719 615.089844 L 941.261719 656.203125 L 955.957031 656.203125 L 955.957031 669.796875 L 996.328125 669.796875 L 996.328125 699.15625 L 942.746094 699.15625 L 942.746094 1033.972656 L 900.535156 1033.972656 L 900.535156 698.414062 Z M 655.574219 584.601562 C 674.691406 588.964844 694.757812 592.738281 715.328125 595.496094 L 715.328125 673.449219 L 597.09375 673.449219 L 597.09375 656.203125 L 582.429688 656.203125 L 582.429688 614.734375 L 597.835938 615.089844 L 597.835938 584.601562 Z M 764.875 599.890625 C 804.445312 601.554688 844.546875 598.464844 882.367188 587.777344 L 882.367188 615.089844 L 897.773438 614.734375 L 897.773438 656.203125 L 883.078125 656.203125 L 883.078125 673.449219 L 764.875 673.449219 Z M 764.875 599.890625 " fill-opacity="1" fill-rule="evenodd"/><g fill="#000000" fill-opacity="1"><g transform="translate(539.147099, 358.873439)"><g><path d="M 78.25 -115.09375 L 123.875 -20.78125 C 125.789062 -16.957031 126.75 -14.085938 126.75 -12.171875 C 126.75 -8.109375 123.484375 -4.445312 116.953125 -1.1875 C 113.117188 0.726562 110.101562 1.6875 107.90625 1.6875 C 105.707031 1.6875 103.90625 1.175781 102.5 0.15625 C 101.09375 -0.851562 100.078125 -1.921875 99.453125 -3.046875 C 98.835938 -4.171875 97.96875 -5.859375 96.84375 -8.109375 L 88.046875 -26.359375 L 41.234375 -26.359375 L 32.453125 -8.109375 C 31.328125 -5.859375 30.453125 -4.222656 29.828125 -3.203125 C 29.210938 -2.191406 28.195312 -1.148438 26.78125 -0.078125 C 25.375 0.984375 23.570312 1.515625 21.375 1.515625 C 19.175781 1.515625 16.164062 0.554688 12.34375 -1.359375 C 5.800781 -4.503906 2.53125 -8.109375 2.53125 -12.171875 C 2.53125 -14.085938 3.488281 -16.957031 5.40625 -20.78125 L 51.03125 -115.265625 C 52.269531 -117.847656 54.15625 -119.925781 56.6875 -121.5 C 59.226562 -123.082031 61.910156 -123.875 64.734375 -123.875 C 70.816406 -123.875 75.320312 -120.945312 78.25 -115.09375 Z M 64.5625 -74.53125 L 53.40625 -51.375 L 75.875 -51.375 Z M 64.5625 -74.53125 "/></g></g></g><g fill="#000000" fill-opacity="1"><g transform="translate(668.429148, 358.873439)"><g><path d="M 29.484375 -102.328125 C 27.398438 -101.710938 24.613281 -101.40625 21.125 -101.40625 C 17.632812 -101.40625 14.875 -101.738281 12.84375 -102.40625 C 10.8125 -103.082031 9.375 -104.238281 8.53125 -105.875 C 7.6875 -107.507812 7.179688 -108.972656 7.015625 -110.265625 C 6.847656 -111.566406 6.765625 -113.507812 6.765625 -116.09375 C 6.765625 -118.6875 6.847656 -120.601562 7.015625 -121.84375 C 7.179688 -123.082031 7.660156 -124.492188 8.453125 -126.078125 C 10.023438 -129.003906 14.363281 -130.46875 21.46875 -130.46875 C 28.226562 -130.46875 32.453125 -129.003906 34.140625 -126.078125 C 34.929688 -124.609375 35.410156 -123.253906 35.578125 -122.015625 C 35.742188 -120.773438 35.828125 -118.914062 35.828125 -116.4375 L 35.828125 -115.421875 C 35.828125 -112.941406 35.742188 -111.082031 35.578125 -109.84375 C 35.410156 -108.601562 34.875 -107.195312 33.96875 -105.625 C 33.0625 -104.050781 31.566406 -102.953125 29.484375 -102.328125 Z M 13.09375 -88.546875 C 15.175781 -89.222656 17.960938 -89.5625 21.453125 -89.5625 C 24.953125 -89.5625 27.710938 -89.222656 29.734375 -88.546875 C 31.765625 -87.878906 33.203125 -86.726562 34.046875 -85.09375 C 34.898438 -83.457031 35.410156 -81.988281 35.578125 -80.6875 C 35.742188 -79.394531 35.828125 -77.453125 35.828125 -74.859375 L 35.828125 -5.234375 C 35.828125 7.941406 31.265625 18.472656 22.140625 26.359375 C 13.015625 34.242188 2.988281 38.1875 -7.9375 38.1875 C -10.53125 38.1875 -12.445312 38.101562 -13.6875 37.9375 C -14.925781 37.769531 -16.332031 37.289062 -17.90625 36.5 C -20.84375 34.925781 -22.3125 30.816406 -22.3125 24.171875 C -22.3125 17.523438 -21.097656 13.351562 -18.671875 11.65625 C -16.253906 9.96875 -12.988281 9.125 -8.875 9.125 C -4.757812 9.125 -1.125 7.992188 2.03125 5.734375 C 5.1875 3.484375 6.765625 -0.566406 6.765625 -6.421875 L 6.765625 -76.046875 C 6.765625 -79.992188 7.296875 -82.894531 8.359375 -84.75 C 9.429688 -86.613281 11.007812 -87.878906 13.09375 -88.546875 Z M 13.09375 -88.546875 "/></g></g></g><g fill="#000000" fill-opacity="1"><g transform="translate(711.01618, 358.873439)"><g><path d="M 6.765625 -74.1875 C 6.765625 -76.78125 6.847656 -78.722656 7.015625 -80.015625 C 7.179688 -81.316406 7.660156 -82.8125 8.453125 -84.5 C 10.023438 -87.425781 14.414062 -88.890625 21.625 -88.890625 C 27.039062 -88.890625 30.875 -87.929688 33.125 -86.015625 C 35.039062 -84.441406 36.054688 -82.019531 36.171875 -78.75 C 36.273438 -77.625 36.328125 -75.992188 36.328125 -73.859375 L 36.328125 -14.703125 C 36.328125 -12.109375 36.242188 -10.160156 36.078125 -8.859375 C 35.910156 -7.566406 35.375 -6.078125 34.46875 -4.390625 C 33.007812 -1.460938 28.675781 0 21.46875 0 C 14.363281 0 10.023438 -1.519531 8.453125 -4.5625 C 7.660156 -6.25 7.179688 -7.710938 7.015625 -8.953125 C 6.847656 -10.191406 6.765625 -12.164062 6.765625 -14.875 Z M 34.5625 -105.53125 C 33.71875 -103.90625 32.222656 -102.753906 30.078125 -102.078125 C 27.941406 -101.398438 25.097656 -101.0625 21.546875 -101.0625 C 17.992188 -101.0625 15.144531 -101.398438 13 -102.078125 C 10.863281 -102.753906 9.375 -103.9375 8.53125 -105.625 C 7.6875 -107.3125 7.179688 -108.800781 7.015625 -110.09375 C 6.847656 -111.394531 6.765625 -113.34375 6.765625 -115.9375 C 6.765625 -118.53125 6.847656 -120.472656 7.015625 -121.765625 C 7.179688 -123.054688 7.660156 -124.492188 8.453125 -126.078125 C 10.023438 -129.117188 14.414062 -130.640625 21.625 -130.640625 C 28.726562 -130.640625 33.007812 -129.117188 34.46875 -126.078125 C 35.375 -124.378906 35.910156 -122.882812 36.078125 -121.59375 C 36.242188 -120.300781 36.328125 -118.359375 36.328125 -115.765625 C 36.328125 -113.171875 36.242188 -111.222656 36.078125 -109.921875 C 35.910156 -108.628906 35.40625 -107.164062 34.5625 -105.53125 Z M 34.5625 -105.53125 "/></g></g></g><g fill="#000000" fill-opacity="1"><g transform="translate(754.110197, 358.873439)"><g><path d="M 35.828125 -77.234375 C 41.117188 -85.234375 47.484375 -89.234375 54.921875 -89.234375 C 66.410156 -89.234375 74.972656 -84.332031 80.609375 -74.53125 C 81.847656 -76.21875 83.34375 -77.988281 85.09375 -79.84375 C 86.84375 -81.707031 89.628906 -83.738281 93.453125 -85.9375 C 97.285156 -88.132812 101.226562 -89.234375 105.28125 -89.234375 C 114.300781 -89.234375 121.851562 -85.765625 127.9375 -78.828125 C 134.019531 -71.898438 137.0625 -60.441406 137.0625 -44.453125 L 137.0625 -14.875 C 137.0625 -12.28125 136.972656 -10.332031 136.796875 -9.03125 C 136.628906 -7.738281 136.097656 -6.25 135.203125 -4.5625 C 133.734375 -1.519531 129.394531 0 122.1875 0 C 115.09375 0 110.753906 -1.578125 109.171875 -4.734375 C 108.378906 -6.421875 107.898438 -7.910156 107.734375 -9.203125 C 107.566406 -10.503906 107.484375 -12.453125 107.484375 -15.046875 L 107.484375 -44.609375 C 107.484375 -54.410156 103.988281 -59.3125 97 -59.3125 C 93.0625 -59.3125 90.382812 -58.015625 88.96875 -55.421875 C 87.5625 -52.835938 86.859375 -49.179688 86.859375 -44.453125 L 86.859375 -14.875 C 86.859375 -12.164062 86.773438 -10.191406 86.609375 -8.953125 C 86.441406 -7.710938 85.90625 -6.25 85 -4.5625 C 83.425781 -1.519531 79.035156 0 71.828125 0 C 64.722656 0 60.382812 -1.578125 58.8125 -4.734375 C 58.019531 -6.421875 57.539062 -7.910156 57.375 -9.203125 C 57.207031 -10.503906 57.125 -12.453125 57.125 -15.046875 L 57.125 -44.609375 C 57.125 -54.410156 53.628906 -59.3125 46.640625 -59.3125 C 39.878906 -59.3125 36.5 -54.410156 36.5 -44.609375 L 36.5 -14.703125 C 36.5 -12.109375 36.414062 -10.160156 36.25 -8.859375 C 36.082031 -7.566406 35.546875 -6.078125 34.640625 -4.390625 C 32.953125 -1.460938 28.5625 0 21.46875 0 C 14.363281 0 10.023438 -1.519531 8.453125 -4.5625 C 7.660156 -6.25 7.179688 -7.710938 7.015625 -8.953125 C 6.847656 -10.191406 6.765625 -12.164062 6.765625 -14.875 L 6.765625 -74.359375 C 6.765625 -76.953125 6.847656 -78.894531 7.015625 -80.1875 C 7.179688 -81.488281 7.71875 -82.925781 8.625 -84.5 C 10.3125 -87.539062 14.304688 -89.0625 20.609375 -89.0625 C 26.921875 -89.0625 31.035156 -88.046875 32.953125 -86.015625 C 34.867188 -83.992188 35.828125 -81.066406 35.828125 -77.234375 Z M 35.828125 -77.234375 "/></g></g></g><g fill="#000000" fill-opacity="1"><g transform="translate(897.92591, 358.873439)"><g><path d="M 6.765625 -74.1875 C 6.765625 -76.78125 6.847656 -78.722656 7.015625 -80.015625 C 7.179688 -81.316406 7.660156 -82.8125 8.453125 -84.5 C 10.023438 -87.425781 14.414062 -88.890625 21.625 -88.890625 C 27.039062 -88.890625 30.875 -87.929688 33.125 -86.015625 C 35.039062 -84.441406 36.054688 -82.019531 36.171875 -78.75 C 36.273438 -77.625 36.328125 -75.992188 36.328125 -73.859375 L 36.328125 -14.703125 C 36.328125 -12.109375 36.242188 -10.160156 36.078125 -8.859375 C 35.910156 -7.566406 35.375 -6.078125 34.46875 -4.390625 C 33.007812 -1.460938 28.675781 0 21.46875 0 C 14.363281 0 10.023438 -1.519531 8.453125 -4.5625 C 7.660156 -6.25 7.179688 -7.710938 7.015625 -8.953125 C 6.847656 -10.191406 6.765625 -12.164062 6.765625 -14.875 Z M 34.5625 -105.53125 C 33.71875 -103.90625 32.222656 -102.753906 30.078125 -102.078125 C 27.941406 -101.398438 25.097656 -101.0625 21.546875 -101.0625 C 17.992188 -101.0625 15.144531 -101.398438 13 -102.078125 C 10.863281 -102.753906 9.375 -103.9375 8.53125 -105.625 C 7.6875 -107.3125 7.179688 -108.800781 7.015625 -110.09375 C 6.847656 -111.394531 6.765625 -113.34375 6.765625 -115.9375 C 6.765625 -118.53125 6.847656 -120.472656 7.015625 -121.765625 C 7.179688 -123.054688 7.660156 -124.492188 8.453125 -126.078125 C 10.023438 -129.117188 14.414062 -130.640625 21.625 -130.640625 C 28.726562 -130.640625 33.007812 -129.117188 34.46875 -126.078125 C 35.375 -124.378906 35.910156 -122.882812 36.078125 -121.59375 C 36.242188 -120.300781 36.328125 -118.359375 36.328125 -115.765625 C 36.328125 -113.171875 36.242188 -111.222656 36.078125 -109.921875 C 35.910156 -108.628906 35.40625 -107.164062 34.5625 -105.53125 Z M 34.5625 -105.53125 "/></g></g></g></svg>